<?xml version="1.0" encoding="utf-8"?>
<!-- Generator: Adobe Illustrator 15.0.2, SVG Export Plug-In . SVG Version: 6.00 Build 0)  -->
<!DOCTYPE svg PUBLIC "-//W3C//DTD SVG 1.1//EN" "http://www.w3.org/Graphics/SVG/1.1/DTD/svg11.dtd">
<svg version="1.1" id="Layer_1" xmlns="http://www.w3.org/2000/svg" xmlns:xlink="http://www.w3.org/1999/xlink" x="0px" y="0px"
	 width="48px" height="48px" viewBox="0 0 48 48" enable-background="new 0 0 48 48" xml:space="preserve">
<g id="Nexus">
	<g id="_x23_008ec8e8">
		<path opacity="0.91" fill="#008EC8" enable-background="new    " d="M7.46,9.009c0.99,0,2.97,0,3.95,0
			c3.42,3.61,6.93,7.14,10.36,10.74c0.99,0.9,1.37,2.2,1.85,3.4c-1.45,0.07-2.98-0.08-3.88-1.38
			C15.64,17.519,11.58,13.239,7.46,9.009z"/>
	</g>
	<g id="_x23_d31446e4">
		<path opacity="0.89" fill="#D31446" enable-background="new    " d="M36.58,9.009c1.33-0.01,2.66-0.01,3.99,0
			c-4.56,4.62-8.88,9.48-13.58,13.951c-0.68,0.01-2.03,0.029-2.71,0.039C27.13,17.428,32.61,13.769,36.58,9.009z"/>
	</g>
	<g id="_x23_e5b01fe5">
		<path opacity="0.9" fill="#E5B01F" enable-background="new    " d="M19.06,26.739c1.1-1.279,2.52-2.18,4.24-2.391
			c0.38,1.841-0.96,3.131-2.05,4.32c-3.34,3.44-6.66,6.9-10.01,10.33c-1.27-0.02-2.54-0.05-3.81-0.08
			C11.21,34.769,15.22,30.838,19.06,26.739z"/>
	</g>
	<g id="_x23_409b3ce8">
		<path opacity="0.91" fill="#409B3C" enable-background="new    " d="M24.67,24.309c1.66,0.31,3.11,1.14,4.2,2.42
			c3.85,4.1,7.86,8.05,11.669,12.199c-1.28,0.021-2.56,0.041-3.84,0.051c-3.18-3.221-6.29-6.51-9.46-9.75
			C26,27.848,24.28,26.459,24.67,24.309z"/>
	</g>
</g>
</svg>
